<?xml version="1.0" encoding="UTF-8" standalone="no"?>
<svg width="50px" height="50px" viewBox="0 0 50 50" version="1.1" xmlns="http://www.w3.org/2000/svg" xmlns:xlink="http://www.w3.org/1999/xlink">
    <!-- Generator: Sketch 3.8.3 (29802) - http://www.bohemiancoding.com/sketch -->
    <title>Instagram</title>
    <desc>Created with Sketch.</desc>
    <defs></defs>
    <g id="Main" stroke="none" stroke-width="1" fill="none" fill-rule="evenodd">
        <g transform="translate(-1308.000000, -12746.000000)" id="Footer" fill="#FFFFFF">
            <g transform="translate(1007.000000, 12745.000000)">
                <g id="Social" transform="translate(67.000000, 0.000000)">
                    <g id="Instagram" transform="translate(233.994391, 1.000000)">
                        <path d="M14.9579221,4.66493806 C13.8093373,4.70333706 12.6500855,4.84366095 11.5251485,5.0789515 C9.41407626,5.52054007 7.67519849,6.61027295 6.43536445,8.41219142 C5.3572088,9.97920586 4.88798168,11.7710736 4.7918486,13.63291 C4.64366485,16.5031713 4.58236073,19.3789734 4.53660755,22.2532292 C4.5120602,23.7962765 4.60279543,25.3409989 4.63042727,26.8850771 C4.67926493,29.6098602 4.7166643,32.3347723 4.76485936,35.0595555 C4.7892782,36.4455276 5.042977,37.7918122 5.5325103,39.087972 C6.05108916,40.4609297 6.86513591,41.617281 8.02245997,42.5388571 C9.10627052,43.4018039 10.3287543,43.9917054 11.6730752,44.1909164 C13.424805,44.4504318 15.200054,44.682501 16.9660496,44.6889438 C22.9603585,44.711107 28.9553101,44.6501582 34.949362,44.5714273 C36.4729686,44.5514547 37.976526,44.238593 39.388834,43.6324557 C42.2869637,42.3884825 43.8560664,40.0818362 44.3141123,37.0400679 C44.5814342,35.2652092 44.6878489,33.4534977 44.7099544,31.6564757 C44.7644469,27.2122417 44.7530086,22.7665904 44.7174085,18.3219698 C44.7033998,16.5651509 44.6295008,14.8018891 44.4532996,13.0546055 C44.0077202,8.63511182 41.5041474,5.61486246 36.9643011,4.90886194 C35.3847883,4.66326293 33.7710892,4.58092412 32.1701135,4.5431694 C29.6871039,4.48441118 27.2016525,4.52757785 24.7173577,4.52757785 M0.113971681,18.9667639 C0.132093024,17.9378509 0.101633746,16.9075205 0.141989077,15.8797673 C0.221800098,13.8447488 0.323588068,11.8085706 0.902956963,9.83643374 C2.07313305,5.8531167 4.51861473,2.99638527 8.357512,1.37254542 C10.3586995,0.526092156 12.4657876,0.229466276 14.6146447,0.133082194 C15.0593245,0.113109556 15.5023335,0.0528050763 15.9461136,0.0110558212 L33.1678155,0.0110558212 C33.5484923,0.0517742305 33.928912,0.0935234853 34.3097172,0.132953338 C35.5852798,0.265030456 36.8797349,0.300465781 38.1333206,0.545420514 C42.4883548,1.39625487 45.7346456,3.7701639 47.6565362,7.82808839 C48.7042326,10.0402835 49.0079257,12.4242433 49.1113844,14.8428652 C49.1369599,15.4403692 49.191581,16.0365847 49.232836,16.6334444 L49.232836,32.7404101 C49.1931232,33.1008195 49.1486552,33.4607136 49.1147259,33.8216385 C48.9819646,35.2288718 48.974896,36.6609744 48.7001199,38.0397306 C47.6551225,43.2839009 44.6357983,46.8186712 39.4740429,48.4042409 C37.173789,49.1108857 34.7872981,49.1843335 32.4188,49.2117798 C27.1107887,49.2733728 21.8012352,49.2576524 16.4928384,49.2095892 C14.893919,49.1951573 13.2834329,49.0606319 11.7022493,48.8216046 C8.90873497,48.3990867 6.41428714,47.2710837 4.3584786,45.2753662 C1.99293647,42.9787706 0.767239676,40.1194621 0.41162438,36.8911107 C0.212546647,35.0837803 0.215759651,33.2542867 0.119883609,31.4352304" id="Fill-1"></path>
                        <path d="M24.6311592,32.7344698 C28.886976,32.7312484 32.7360263,29.4227488 32.7696986,24.6695189 C32.8019572,20.1202674 29.2019789,16.515142 24.6806395,16.5045758 C20.3750855,16.4945251 16.5428713,19.7010998 16.5356742,24.6186208 C16.5289911,29.2257284 20.1147037,32.7012251 24.6311592,32.7344698 M24.6517225,37.2605272 C18.255531,37.5022605 11.9539303,31.9900703 11.9633123,24.6804716 C11.9730798,17.0783703 18.414639,11.9053284 24.7445141,11.9286513 C31.3629169,11.9528761 37.543066,17.8198062 37.3252243,25.0018377 C37.1341149,31.2991459 31.7399951,37.485767 24.6517225,37.2605272" id="Fill-10"></path>
                        <path d="M34.7125893,11.5291985 C34.7176016,9.87134072 36.1004786,8.50070241 37.7532479,8.51552078 C39.3920085,8.53021039 40.762676,9.90303924 40.7448117,11.5115453 C40.7263048,13.1610274 39.3133541,14.5777961 37.7071091,14.5573081 C36.1193711,14.5369488 34.7078341,13.109614 34.7125893,11.5291985" id="Fill-12"></path>
                    </g>
                </g>
            </g>
        </g>
    </g>
</svg>