<?xml version="1.0" encoding="UTF-8" standalone="no"?>
<svg width="54px" height="51px" viewBox="0 0 54 51" version="1.1" xmlns="http://www.w3.org/2000/svg" xmlns:xlink="http://www.w3.org/1999/xlink">
    <!-- Generator: Sketch 3.8.3 (29802) - http://www.bohemiancoding.com/sketch -->
    <title>Snapchat</title>
    <desc>Created with Sketch.</desc>
    <defs>
        <polygon id="path-1" points="0 50.3912467 53.7049196 50.3912467 53.7049196 0.160981432 0 0.160981432"></polygon>
    </defs>
    <g id="Main" stroke="none" stroke-width="1" fill="none" fill-rule="evenodd">
        <g transform="translate(-1432.000000, -12745.000000)" id="Footer">
            <g transform="translate(1007.000000, 12745.000000)">
                <g id="Social" transform="translate(67.000000, 0.000000)">
                    <g id="Snapchat" transform="translate(358.295568, 0.000000)">
                        <mask id="mask-2" fill="white">
                            <use xlink:href="#path-1"></use>
                        </mask>
                        <g id="path-1"></g>
                        <path d="M27.1913653,50.3912467 C27.052891,50.3912467 26.9169623,50.3873574 26.7810336,50.3809317 L26.7806942,50.3809317 C26.693978,50.3875265 26.6033589,50.3912467 26.5127398,50.3912467 C23.3310569,50.3912467 21.2889015,48.9528979 19.3142862,47.5617275 C17.9507564,46.6015882 16.6642697,45.6953912 15.1481806,45.4437732 C14.4082939,45.3216844 13.6719707,45.2597944 12.9604236,45.2597944 C11.6785189,45.2597944 10.667114,45.4569629 9.92892424,45.6008654 C9.48024063,45.6882891 9.09315762,45.7635378 8.79889992,45.7635378 C8.49157538,45.7635378 8.15862635,45.6972513 8.01387326,45.2044993 C7.88812641,44.7775265 7.79716791,44.3640816 7.70960328,43.9641644 C7.4840736,42.934695 7.32404761,42.3017606 6.89097626,42.2354742 C1.84498236,41.4588063 0.400675844,40.3997447 0.0785875159,39.6482725 C0.0329385377,39.5408952 0.00714431963,39.4331797 0.000865463894,39.3266479 C-0.0154256212,39.0379974 0.189740232,38.7829974 0.476022112,38.7364954 C8.23312408,37.4635245 11.7117799,29.5634284 11.8561936,29.2279376 C11.8600966,29.2186373 11.8643391,29.2096751 11.8685815,29.2003747 C12.3433988,28.2417573 12.436224,27.4094562 12.1458694,26.7273143 C11.6135242,25.4771718 9.87733578,24.9277719 8.72796583,24.5645491 C8.44677489,24.4759417 8.18017805,24.3920689 7.96992125,24.3092109 C5.67678133,23.4058886 5.48587017,22.4785544 5.57598024,22.0059251 C5.72972736,21.2006797 6.80969054,20.639443 7.6831303,20.639443 C7.922745,20.639443 8.13351088,20.6817175 8.31084612,20.7642374 C9.3424452,21.2458289 10.2722249,21.4898375 11.0745609,21.4898375 C12.1830334,21.4898375 12.6668447,21.0256631 12.7258999,20.9647878 C12.6977299,20.4415981 12.6629417,19.895242 12.6271352,19.3314688 C12.3960054,15.6769198 12.1097236,11.1361273 13.270124,8.54419096 C16.7474221,0.774638595 24.1218533,0.171127321 26.299089,0.171127321 C26.3547501,0.171127321 27.2536447,0.161657825 27.2536447,0.161657825 L27.3824461,0.160981432 C29.5647727,0.160981432 36.9551556,0.765676393 40.4346598,8.53945621 C41.5952299,11.1327454 41.3080996,15.6775962 41.0766304,19.3292706 L41.0671273,19.4880537 C41.0350542,19.9965318 41.0039994,20.4908057 40.9782051,20.9639423 C41.0336966,21.020252 41.4786469,21.4472248 42.4836032,21.4856101 L42.4846214,21.4856101 C43.2484357,21.4565252 44.1259482,21.2138694 45.0891586,20.7642374 C45.3715374,20.6328481 45.6851408,20.6051161 45.8984522,20.6051161 C46.2244436,20.6051161 46.5550169,20.6680206 46.8294199,20.7821618 L46.8460503,20.7889257 C47.6251375,21.0640484 48.1354219,21.6082062 48.1464523,22.1767142 C48.1566342,22.712248 47.7464722,23.5171551 45.7341838,24.3092109 C45.525624,24.3908853 45.2590271,24.4752652 44.9766483,24.5645491 C43.8262601,24.9282792 42.0905808,25.4771718 41.558575,26.7271452 C41.267881,27.4089489 41.3610456,28.2405736 41.8355235,29.1998674 C41.8397659,29.2091678 41.8445175,29.21813 41.8482509,29.2279376 C41.9926646,29.5630902 45.468096,37.4609881 53.228592,38.7353117 C53.5152133,38.78249 53.71987,39.0371519 53.704088,39.3259715 C53.6976395,39.4343634 53.6711665,39.5434317 53.624669,39.6494562 C53.3046171,40.3955173 51.8614984,41.4532261 46.8136379,42.2304012 C46.4012698,42.2936439 46.2414135,42.8290086 45.9953502,43.9518203 C45.9059189,44.3605305 45.8151301,44.7618004 45.6904015,45.1840385 C45.5829821,45.550305 45.3538888,45.7217706 44.9685027,45.7217706 L44.9057142,45.7217706 C44.6382689,45.7217706 44.2579739,45.6740849 43.776199,45.5797281 C42.9215958,45.4131664 41.9633066,45.2597944 40.7441905,45.2597944 C40.032304,45.2597944 39.2958112,45.3216844 38.5554153,45.4437732 C37.0410232,45.6953912 35.7552154,46.5998972 34.3942309,47.5585146 C32.4157126,48.9528979 30.3738966,50.3912467 27.1913653,50.3912467" id="Fill-1" fill="#FFFFFF" mask="url(#mask-2)"></path>
                    </g>
                </g>
            </g>
        </g>
    </g>
</svg>