<?xml version="1.0" encoding="UTF-8" standalone="no"?>
<svg width="58px" height="48px" viewBox="0 0 58 48" version="1.1" xmlns="http://www.w3.org/2000/svg" xmlns:xlink="http://www.w3.org/1999/xlink">
    <!-- Generator: Sketch 3.8.3 (29802) - http://www.bohemiancoding.com/sketch -->
    <title>Twitter</title>
    <desc>Created with Sketch.</desc>
    <defs></defs>
    <g id="Main" stroke="none" stroke-width="1" fill="none" fill-rule="evenodd">
        <g transform="translate(-1175.000000, -12747.000000)" id="Footer" fill="#FEFEFE">
            <g transform="translate(1007.000000, 12745.000000)">
                <g id="Social" transform="translate(67.000000, 0.000000)">
                    <path d="M158.994391,8.48729199 C156.875089,9.42725786 154.597504,10.0623349 152.207046,10.3484114 C154.646805,8.8855936 156.520899,6.56973566 157.40313,3.81016712 C155.119707,5.1646521 152.590427,6.14808085 149.898323,6.67741981 C147.743343,4.38102286 144.67175,2.94609911 141.272563,2.94609911 C134.746644,2.94609911 129.455201,8.2368939 129.455201,14.7634616 C129.455201,15.6891561 129.559642,16.5914974 129.761387,17.4562141 C119.939425,16.9632023 111.231929,12.2588321 105.403362,5.10886393 C104.386201,6.85451483 103.80302,8.8842962 103.80302,11.0503045 C103.80302,15.1500866 105.889238,18.7672362 109.060731,20.8865381 C107.123065,20.8249117 105.300867,20.2936266 103.707661,19.4081515 C103.707012,19.4574527 103.707012,19.5067539 103.707012,19.5567037 C103.707012,25.282776 107.780198,30.0585032 113.186461,31.1444266 C112.194599,31.4149343 111.150841,31.5595944 110.072703,31.5595944 C109.311778,31.5595944 108.570963,31.4849939 107.849609,31.3474696 C109.353295,36.0421093 113.717746,39.4588107 118.88918,39.5541695 C114.844538,42.7237163 109.749001,44.6127298 104.212349,44.6127298 C103.258112,44.6127298 102.317498,44.5569416 101.3931,44.4479601 C106.622917,47.8004402 112.834866,49.7575672 119.508688,49.7575672 C141.245318,49.7575672 153.132091,31.7503121 153.132091,16.1335154 C153.132091,15.6210426 153.120415,15.1118134 153.09771,14.6045302 C155.406433,12.9386694 157.410266,10.856992 158.994391,8.48729199" id="Twitter"></path>
                </g>
            </g>
        </g>
    </g>
</svg>