<?xml version="1.0" encoding="utf-8"?>
<!-- Generator: Adobe Illustrator 19.2.0, SVG Export Plug-In . SVG Version: 6.00 Build 0)  -->
<svg version="1.1"
	 id="svg2" xmlns:cc="http://creativecommons.org/ns#" xmlns:dc="http://purl.org/dc/elements/1.1/" xmlns:rdf="http://www.w3.org/1999/02/22-rdf-syntax-ns#" xmlns:svg="http://www.w3.org/2000/svg"
	 xmlns="http://www.w3.org/2000/svg" xmlns:xlink="http://www.w3.org/1999/xlink" x="0px" y="0px" viewBox="0 0 475.5 226.8"
	 style="enable-background:new 0 0 475.5 226.8;" xml:space="preserve">
<style type="text/css">
	.st0{fill:#229AFF;}
	.st1{fill:#F2F2F2;}
</style>
<g>
	<path id="path4" class="st0" d="M182.3,168c-17.2,22.4-43.1,35.2-71.4,35.2c-49.5,0-89.8-40.3-89.8-89.8S61.5,23.6,111,23.6
		c35.6,0,69.5,11.5,97.6,33.1l74.7,58.4l-26.5,34.1h25.3l29.2-37.4L220.8,41C189.1,16.5,151.2,3.6,111.1,3.6
		C50.5,3.6,1.3,52.8,1.3,113.4s49.2,109.8,109.8,109.8c34.4,0,66.2-15.7,87.1-43l47.4-60.7l4.8-6.1h-25.2L182.3,168L182.3,168z"/>
	<path id="path4_1_" class="st1" d="M293.2,58.8c17.2-22.4,43.1-35.2,71.4-35.2c49.5,0,89.8,40.3,89.8,89.8s-40.3,89.8-89.8,89.8
		c-35.6,0-69.5-11.5-97.6-33.1l-74.7-58.4l26.5-34.1h-25.3l-29.2,37.4l90.5,70.7c31.7,24.4,69.7,37.3,109.8,37.3
		c60.6,0,109.8-49.2,109.8-109.8S425,3.6,364.4,3.6c-34.4,0-66.2,15.7-87.1,43l-47.4,60.7l-4.8,6.1h25.2L293.2,58.8L293.2,58.8z"/>
</g>
</svg>
